<svg xmlns="http://www.w3.org/2000/svg" version="1.1" xmlns:xlink="http://www.w3.org/1999/xlink" xmlns:svgjs="http://svgjs.dev/svgjs" width="1500" height="1500" viewBox="0 0 1500 1500"><rect width="1500" height="1500" fill="#ffffff"></rect><g transform="matrix(0.6666666666666666,0,0,0.6666666666666666,249.39393939393938,435.9903225806451)"><svg viewBox="0 0 396 248" data-background-color="#ffffff" preserveAspectRatio="xMidYMid meet" height="939" width="1500" xmlns="http://www.w3.org/2000/svg" xmlns:xlink="http://www.w3.org/1999/xlink"><g id="tight-bounds" transform="matrix(1,0,0,1,0.2400000000000091,0.4000000000000057)"><svg viewBox="0 0 395.52 247.2" height="247.2" width="395.52"><g><svg></svg></g><g><svg viewBox="0 0 395.52 247.2" height="247.2" width="395.52"><g transform="matrix(1,0,0,1,75.54432,97.00177947194071)"><svg viewBox="0 0 244.43135999999998 53.196441056118566" height="53.196441056118566" width="244.43135999999998"><g><svg viewBox="0 0 269.50130606060605 58.6525" height="53.196441056118566" width="244.43135999999998"><g><svg viewBox="0 0 269.50130606060605 58.6525" height="58.6525" width="269.50130606060605"><g id="textblocktransform"><svg viewBox="0 0 269.50130606060605 58.6525" height="58.6525" width="269.50130606060605" id="textblock"><g><svg viewBox="0 0 269.50130606060605 58.6525" height="58.6525" width="269.50130606060605"><g><svg><g></g><g></g></svg></g><g><svg><g></g><g><svg></svg></g></svg></g><g id="text-0"><svg viewBox="0 0 269.50130606060605 58.6525" height="58.6525" width="269.50130606060605"><g><svg xmlns="http://www.w3.org/2000/svg" xmlns:xlink="http://www.w3.org/1999/xlink" version="1.1" x="0" y="0" viewBox="21 17 58 66" enable-background="new 0 0 100 100" xml:space="preserve" height="58.6525" width="51.543106060606064" class="icon-dxe-0" data-fill-palette-color="accent" id="dxe-0"><path fill="#000000" d="M79 17H21L47.583 50 21 83H79L52.417 50zM49.25 69.332H35.863L49.25 52.713zM50.75 69.332V52.713L64.137 69.332zM72.731 20L60.465 35.227H39.535L27.269 20z" data-fill-palette-color="accent"></path></svg></g><g transform="matrix(1,0,0,1,65.39060606060606,3.552713678800501e-15)"><svg width="204.1107" viewBox="1.55 -35.4 126.14 36.25" height="58.652499999999996" data-palette-color="#000000"><path d="M32.55-1.55L36.25-1.55 36.25 0 23.25 0 23.25-1.55 27.25-1.55 23.85-11.4 11.8-11.4 9.9-6.9Q9-4.6 9-3.53 9-2.45 9.3-2 9.6-1.55 12.45-1.55L12.45-1.55 12.45 0 1.55 0 1.55-1.55Q4.15-1.5 5.33-2.23 6.5-2.95 7.9-6.9L7.9-6.9 18.75-35.4 20.75-35.4 32.55-1.55ZM18.2-27.95L12.5-13.3 23.15-13.3 18.2-27.95ZM49.5-1.55L54.15-1.55 54.15 0 39.85 0 39.85-1.55 44.55-1.55 44.55-32.9 39.85-32.9 39.85-34.45 54.15-34.45 54.15-32.9 49.5-32.9 49.5-1.55ZM85.45-30.35L85.45-30.35Q89.55-25.45 89.55-17.53 89.55-9.6 85.25-4.45 80.95 0.7 74.52 0.7 68.09 0.7 63.5-4.55L63.5-4.55Q59-9.85 59.1-17.63 59.2-25.4 63.52-30.38 67.84-35.35 74.62-35.35 81.4-35.35 85.45-30.35ZM74.55-1.05L74.55-1.05Q79.2-1.05 81.59-5.5 84-9.95 84-17.32 84-24.7 81.9-28.9L81.9-28.9Q79.4-33.8 74.22-33.8 69.05-33.8 66.65-29.15L66.65-29.15Q64.65-25.2 64.65-17.35L64.65-17.35Q64.65-1.05 74.55-1.05ZM116.64-34.45L127.69-34.45 127.69-32.9Q124.79-32.9 124.29-32.4L124.29-32.4Q122.99-31.1 122.99-28.55L122.99-28.55 123.09 0.85 121.94 0.85 100.79-31.75 100.79-5.85Q100.79-3.25 102.04-2.05L102.04-2.05Q102.54-1.55 105.44-1.55L105.44-1.55 105.44 0 94.39 0 94.39-1.55Q97.19-1.55 97.69-2L97.69-2Q99.09-3.2 99.09-5.85L99.09-5.85 99.09-31.75Q98.94-32.9 97.59-32.9L97.59-32.9 94.79-32.9 94.79-34.45 104.79-34.45 121.34-8.7 121.34-28.55Q121.34-31.1 119.94-32.45L119.94-32.45Q119.39-32.9 116.64-32.9L116.64-32.9 116.64-34.45Z" opacity="1" transform="matrix(1,0,0,1,0,0)" fill="#000000" class="wordmark-text-0" data-fill-palette-color="primary"></path></svg></g></svg></g></svg></g></svg></g></svg></g><g></g></svg></g></svg></g><g><path d="M81.987 84.443A122.216 122.216 0 0 1 313.533 84.443L308.736 84.443A117.418 117.418 0 0 0 86.784 84.443L81.987 84.443M81.987 162.757A122.216 122.216 0 0 0 313.533 162.757L308.736 162.757A117.418 117.418 0 0 1 86.784 162.757L81.987 162.757" fill="#000000" stroke="transparent" data-fill-palette-color="tertiary"></path></g></svg></g><defs></defs></svg><rect width="395.52" height="247.2" fill="none" stroke="none" visibility="hidden"></rect></g></svg></g></svg>